<svg id="svg" version="1.1" width="400" height="400" xmlns="http://www.w3.org/2000/svg" xmlns:xlink="http://www.w3.org/1999/xlink" style="display: block;"><g id="svgg"><path id="path0" d="M196.800 71.056 C 196.030 71.393,194.279 72.959,192.908 74.535 C 190.055 77.816,183.038 86.097,179.679 90.148 C 178.425 91.659,176.954 93.369,176.408 93.948 C 175.863 94.526,174.797 95.810,174.039 96.800 C 173.282 97.790,172.424 98.780,172.134 99.000 C 171.843 99.220,171.199 99.970,170.703 100.668 C 170.206 101.365,168.312 103.656,166.492 105.759 L 163.185 109.583 164.678 110.207 C 165.499 110.550,166.467 111.098,166.829 111.426 C 167.191 111.754,168.996 112.751,170.840 113.643 C 172.684 114.535,174.284 115.403,174.396 115.572 C 174.508 115.741,176.130 116.642,178.000 117.573 C 179.870 118.505,181.980 119.626,182.689 120.064 C 184.043 120.901,184.677 120.784,185.128 119.612 C 185.278 119.223,186.157 118.027,187.083 116.953 C 190.009 113.559,197.247 104.661,198.345 103.109 C 199.632 101.289,200.573 101.208,201.561 102.832 C 201.973 103.509,202.971 104.814,203.778 105.732 C 204.585 106.649,206.689 109.200,208.452 111.400 C 210.215 113.600,212.320 116.178,213.129 117.129 C 213.938 118.080,214.831 119.295,215.113 119.829 C 215.728 120.994,216.372 121.051,217.646 120.052 C 218.530 119.359,220.899 118.072,229.330 113.707 C 231.129 112.775,232.800 111.847,233.044 111.644 C 233.288 111.440,234.246 110.887,235.173 110.414 C 237.054 109.454,237.089 109.625,234.400 106.671 C 233.630 105.826,232.769 104.699,232.487 104.167 C 232.205 103.635,231.822 103.200,231.636 103.200 C 231.450 103.200,230.510 102.179,229.549 100.932 C 228.587 99.684,227.350 98.173,226.800 97.573 C 225.395 96.041,222.664 92.858,221.328 91.196 C 220.708 90.423,219.816 89.343,219.347 88.796 C 218.878 88.248,217.196 86.270,215.610 84.400 C 214.024 82.530,211.888 80.034,210.863 78.853 C 209.838 77.673,208.846 76.440,208.658 76.115 C 206.119 71.713,200.635 69.373,196.800 71.056 M111.874 106.369 C 109.071 106.944,106.931 109.157,106.373 112.057 C 106.018 113.903,107.242 133.395,107.990 137.800 C 108.214 139.120,108.769 145.056,109.223 150.992 C 109.678 156.927,110.091 161.824,110.141 161.875 C 110.298 162.031,117.737 159.971,119.000 159.421 C 119.660 159.134,122.810 158.207,126.000 157.362 C 133.349 155.416,132.868 155.992,132.184 149.956 C 130.876 138.417,130.030 130.237,130.133 130.133 C 130.194 130.072,133.564 130.382,137.622 130.822 C 155.129 132.719,154.953 132.704,155.397 132.245 C 155.633 132.000,156.517 129.190,157.362 126.000 C 158.207 122.810,159.136 119.660,159.426 119.000 C 159.998 117.699,162.049 110.315,161.884 110.151 C 161.829 110.095,156.927 109.681,150.992 109.231 C 145.056 108.781,139.300 108.235,138.200 108.019 C 136.488 107.682,132.864 107.391,115.800 106.221 C 114.480 106.130,112.713 106.197,111.874 106.369 M273.000 107.011 C 266.840 107.537,261.350 108.065,260.800 108.184 C 259.977 108.362,239.832 110.000,238.466 110.000 C 238.050 110.000,239.250 115.178,239.954 116.419 C 240.351 117.118,243.199 127.374,243.202 128.117 C 243.204 128.383,243.446 129.062,243.741 129.627 C 244.035 130.191,244.402 131.155,244.556 131.768 C 244.806 132.764,244.971 132.859,246.118 132.661 C 246.823 132.539,249.110 132.318,251.200 132.170 C 253.290 132.021,255.180 131.767,255.400 131.605 C 255.620 131.442,258.320 131.100,261.400 130.845 C 264.480 130.589,267.692 130.276,268.538 130.148 L 270.076 129.917 269.794 133.058 C 269.543 135.847,268.462 145.838,267.674 152.645 C 267.394 155.061,267.705 156.000,268.784 156.000 C 269.468 156.000,280.931 159.184,281.800 159.615 C 282.872 160.147,289.724 162.009,289.914 161.820 C 290.074 161.659,290.888 152.562,292.852 129.000 C 294.864 104.844,295.114 105.121,273.000 107.011 M197.400 145.152 C 194.856 146.321,194.022 147.802,189.945 158.400 C 189.056 160.710,188.193 162.780,188.027 163.000 C 187.860 163.220,187.047 165.290,186.219 167.600 C 185.391 169.910,184.490 172.160,184.216 172.600 C 183.942 173.040,182.963 175.461,182.040 177.981 C 181.118 180.501,180.195 182.765,179.989 183.013 C 179.783 183.261,178.983 185.208,178.212 187.339 C 177.441 189.469,176.471 191.885,176.058 192.706 C 175.644 193.528,174.900 195.370,174.404 196.800 C 173.908 198.230,173.078 200.309,172.559 201.421 C 172.041 202.532,170.892 205.395,170.007 207.782 C 169.121 210.169,168.240 212.320,168.048 212.561 C 167.857 212.802,166.949 215.061,166.032 217.581 C 165.114 220.101,164.201 222.358,164.003 222.596 C 163.805 222.835,162.935 224.914,162.070 227.215 C 161.205 229.517,160.040 232.480,159.480 233.800 C 157.486 238.500,156.387 241.655,156.615 242.025 C 156.926 242.527,168.252 242.508,169.194 242.003 C 169.602 241.785,170.150 240.930,170.413 240.103 C 170.675 239.276,171.141 238.198,171.449 237.707 C 171.757 237.216,172.645 235.057,173.423 232.909 C 174.200 230.761,175.068 228.643,175.352 228.202 C 175.636 227.761,176.440 225.808,177.140 223.862 C 177.840 221.917,178.597 219.980,178.822 219.559 C 179.219 218.817,179.894 218.796,200.116 218.896 L 221.000 219.000 222.400 222.434 C 223.170 224.323,224.281 227.023,224.869 228.434 C 225.457 229.845,226.348 232.080,226.851 233.400 C 227.353 234.720,227.889 235.980,228.042 236.200 C 228.195 236.420,228.790 237.760,229.364 239.179 C 230.712 242.509,230.404 242.387,237.476 242.394 C 244.238 242.401,244.302 242.375,243.188 240.069 C 242.752 239.167,241.830 236.848,241.140 234.915 C 240.449 232.982,239.746 231.220,239.578 231.000 C 239.409 230.780,238.519 228.620,237.600 226.200 C 236.681 223.780,235.791 221.620,235.623 221.400 C 235.211 220.863,232.000 212.221,232.000 211.651 C 232.000 211.403,231.845 211.200,231.655 211.200 C 231.465 211.200,230.718 209.535,229.994 207.500 C 229.271 205.465,228.248 202.847,227.720 201.682 C 227.192 200.517,226.134 197.907,225.368 195.882 C 224.602 193.857,223.628 191.480,223.202 190.600 C 222.776 189.720,221.864 187.470,221.174 185.600 C 220.485 183.730,219.785 182.020,219.618 181.800 C 219.222 181.275,216.000 172.624,216.000 172.084 C 216.000 171.854,215.842 171.607,215.650 171.533 C 215.457 171.460,214.541 169.330,213.613 166.800 C 212.686 164.270,211.779 162.020,211.598 161.800 C 211.416 161.580,210.600 159.600,209.783 157.400 C 207.803 152.064,205.481 147.157,204.538 146.315 C 202.449 144.451,199.849 144.027,197.400 145.152 M105.000 167.051 C 102.580 169.116,100.150 171.221,99.600 171.729 C 99.050 172.237,97.790 173.277,96.800 174.040 C 95.810 174.803,94.429 175.961,93.732 176.614 C 93.034 177.266,91.234 178.820,89.732 180.066 C 70.763 195.804,70.400 196.182,70.400 200.228 C 70.400 202.752,73.305 207.038,76.115 208.658 C 76.440 208.846,77.673 209.838,78.853 210.863 C 80.034 211.888,82.530 214.014,84.400 215.587 C 86.270 217.161,88.250 218.839,88.800 219.317 C 89.350 219.794,90.430 220.693,91.200 221.313 C 92.918 222.698,95.584 224.988,97.385 226.627 C 98.127 227.302,99.739 228.613,100.967 229.540 C 102.195 230.467,103.200 231.395,103.200 231.603 C 103.200 231.810,103.695 232.244,104.300 232.567 C 104.905 232.891,106.041 233.750,106.825 234.478 C 109.626 237.077,109.459 237.044,110.414 235.173 C 110.887 234.246,111.441 233.288,111.646 233.044 C 112.002 232.620,113.304 230.182,117.436 222.200 C 118.461 220.220,119.431 218.510,119.590 218.400 C 119.980 218.131,120.800 216.549,120.800 216.066 C 120.800 215.853,120.174 215.310,119.409 214.858 C 118.644 214.407,117.429 213.498,116.709 212.840 C 115.989 212.181,113.600 210.203,111.400 208.444 C 109.200 206.685,106.649 204.585,105.732 203.778 C 104.814 202.971,103.509 201.973,102.832 201.561 C 101.187 200.560,101.272 199.525,103.100 198.306 C 104.549 197.340,112.949 190.534,116.953 187.083 C 118.027 186.157,119.246 185.269,119.662 185.110 C 120.828 184.662,120.991 183.654,120.093 182.441 C 119.645 181.835,118.518 179.823,117.589 177.969 C 116.659 176.116,115.756 174.508,115.582 174.396 C 115.407 174.284,114.568 172.754,113.717 170.996 C 112.866 169.238,111.681 167.083,111.085 166.207 C 110.488 165.331,110.000 164.397,110.000 164.131 C 110.000 163.008,109.172 163.491,105.000 167.051 M289.315 165.544 C 288.629 166.785,287.220 169.420,286.184 171.400 C 285.147 173.380,284.187 175.090,284.050 175.200 C 283.912 175.310,283.170 176.729,282.400 178.354 C 281.630 179.979,280.595 181.859,280.100 182.532 C 279.001 184.026,278.982 184.345,279.971 184.713 C 280.395 184.871,281.610 185.747,282.671 186.661 C 283.732 187.574,286.400 189.767,288.600 191.532 C 290.800 193.298,292.960 195.084,293.400 195.502 C 293.840 195.919,295.235 197.017,296.500 197.943 C 299.165 199.892,299.209 200.029,297.574 201.270 C 296.899 201.781,295.569 202.879,294.618 203.710 C 293.667 204.540,292.340 205.620,291.668 206.110 C 290.996 206.599,288.700 208.440,286.565 210.200 C 281.587 214.304,280.012 215.527,279.452 215.725 C 279.160 215.829,279.289 216.294,279.819 217.043 C 280.269 217.679,281.336 219.640,282.191 221.400 C 283.045 223.160,283.870 224.690,284.022 224.800 C 284.175 224.910,285.139 226.620,286.166 228.600 C 288.087 232.306,290.360 236.493,290.558 236.692 C 290.674 236.807,294.623 233.575,296.384 231.923 C 296.925 231.415,298.264 230.313,299.359 229.474 C 300.454 228.634,301.541 227.697,301.775 227.390 C 302.009 227.084,302.864 226.331,303.677 225.717 C 306.043 223.927,317.476 214.228,321.135 210.907 C 322.161 209.976,323.123 209.211,323.273 209.207 C 323.831 209.193,328.618 204.160,329.100 203.081 C 330.720 199.457,328.181 193.864,323.739 191.269 C 323.485 191.121,322.315 190.162,321.139 189.137 C 319.963 188.113,317.470 185.980,315.600 184.398 C 313.730 182.815,311.750 181.134,311.200 180.660 C 310.650 180.187,309.480 179.204,308.600 178.477 C 306.713 176.915,306.356 176.614,297.400 169.020 C 296.520 168.274,294.621 166.679,293.181 165.475 L 290.562 163.287 289.315 165.544 M201.539 170.700 C 203.191 175.373,203.625 176.466,204.167 177.323 C 204.473 177.806,205.360 179.910,206.139 182.000 C 206.919 184.090,207.988 186.700,208.515 187.800 C 209.043 188.900,209.983 191.240,210.605 193.000 C 211.226 194.760,211.897 196.414,212.096 196.675 C 212.579 197.311,215.600 205.264,215.600 205.899 C 215.600 206.292,212.230 206.400,200.000 206.400 C 189.757 206.400,184.400 206.261,184.400 205.996 C 184.400 205.450,187.294 197.852,187.598 197.600 C 187.730 197.490,188.625 195.330,189.586 192.800 C 190.548 190.270,191.449 188.110,191.589 188.000 C 191.729 187.890,192.445 186.180,193.180 184.200 C 193.915 182.220,195.015 179.520,195.624 178.200 C 196.233 176.880,197.332 174.138,198.066 172.106 C 199.694 167.598,200.349 167.333,201.539 170.700 M110.000 238.468 C 110.000 240.570,108.313 260.663,108.007 262.200 C 107.335 265.578,106.012 286.061,106.352 287.824 C 106.976 291.064,109.004 293.090,112.328 293.794 C 113.825 294.112,142.961 292.102,144.200 291.596 C 144.640 291.416,148.750 290.999,153.334 290.667 C 157.918 290.336,161.736 289.998,161.819 289.915 C 162.009 289.724,160.149 282.876,159.615 281.800 C 159.179 280.923,156.000 269.465,156.000 268.773 C 156.000 267.682,154.991 267.350,152.600 267.654 C 149.035 268.108,136.660 269.460,133.058 269.789 L 129.917 270.076 130.146 268.538 C 130.272 267.692,130.576 264.570,130.822 261.600 C 131.068 258.630,131.423 255.840,131.610 255.400 C 131.797 254.960,132.061 252.980,132.198 251.000 C 132.334 249.020,132.544 246.823,132.664 246.118 C 132.860 244.965,132.767 244.808,131.741 244.563 C 131.114 244.413,130.420 244.159,130.200 244.000 C 129.980 243.841,126.939 242.951,123.443 242.023 C 119.947 241.095,116.797 240.171,116.443 239.970 C 115.184 239.253,110.000 238.044,110.000 238.468 M287.000 238.850 C 285.460 239.262,283.903 239.770,283.541 239.978 C 283.178 240.186,280.118 241.095,276.741 241.999 C 273.363 242.903,270.033 243.903,269.340 244.221 C 268.646 244.540,267.903 244.800,267.689 244.800 C 267.255 244.800,267.430 247.691,268.016 250.200 C 268.476 252.170,270.124 269.609,269.874 269.860 C 269.623 270.110,252.167 268.473,250.200 268.015 C 247.689 267.430,244.800 267.255,244.800 267.689 C 244.800 267.903,244.540 268.646,244.221 269.340 C 243.903 270.033,242.893 273.381,241.975 276.779 C 241.058 280.178,240.155 283.238,239.968 283.579 C 239.781 283.921,239.280 285.491,238.854 287.068 L 238.080 289.936 239.940 290.156 C 240.963 290.277,244.770 290.574,248.400 290.815 C 252.030 291.057,255.360 291.405,255.800 291.590 C 257.458 292.284,286.499 294.112,288.276 293.633 C 294.967 291.832,294.901 293.033,290.828 247.249 C 289.895 236.758,290.430 237.931,287.000 238.850 M182.532 280.100 C 181.859 280.595,179.979 281.630,178.354 282.400 C 176.729 283.170,175.173 284.014,174.896 284.275 C 174.619 284.537,172.909 285.495,171.096 286.405 C 169.283 287.315,166.788 288.631,165.551 289.330 L 163.303 290.600 165.484 293.200 C 166.684 294.630,168.278 296.520,169.025 297.400 C 169.773 298.280,171.243 300.023,172.292 301.273 C 176.195 305.924,178.331 308.441,180.547 311.000 C 181.119 311.660,182.866 313.730,184.430 315.600 C 185.995 317.470,188.113 319.963,189.137 321.139 C 190.162 322.315,191.121 323.485,191.269 323.739 C 191.903 324.823,195.664 328.413,196.763 328.981 C 200.874 331.107,203.980 329.452,210.695 321.562 C 214.656 316.907,216.016 315.294,219.064 311.637 C 222.542 307.464,225.901 303.527,227.287 302.000 C 227.786 301.450,228.826 300.183,229.597 299.184 C 230.369 298.185,231.415 296.925,231.923 296.384 C 233.749 294.437,236.801 290.668,236.664 290.530 C 236.498 290.365,233.871 288.949,228.721 286.250 C 226.674 285.177,224.910 284.179,224.800 284.032 C 224.690 283.885,223.160 283.064,221.400 282.208 C 219.640 281.352,217.679 280.280,217.043 279.826 C 216.296 279.293,215.829 279.160,215.725 279.452 C 215.527 280.012,214.304 281.587,210.200 286.565 C 208.440 288.700,206.599 290.996,206.110 291.668 C 205.620 292.340,204.540 293.659,203.710 294.600 C 202.879 295.541,201.877 296.781,201.481 297.355 C 200.400 298.928,199.462 298.661,197.774 296.300 C 196.948 295.145,195.946 293.840,195.548 293.400 C 195.149 292.960,193.362 290.800,191.576 288.600 C 189.790 286.400,187.670 283.816,186.865 282.859 C 186.059 281.901,185.169 280.686,184.887 280.159 C 184.255 278.978,184.064 278.973,182.532 280.100 " stroke="none" fill="#ffffff" fill-rule="evenodd" /><path id="path1" d="M0.000 200.000 L 0.000 400.000 200.000 400.000 L 400.000 400.000 400.000 200.000 L 400.000 0.000 200.000 0.000 L 0.000 0.000 0.000 200.000 M203.614 70.207 C 204.979 70.913,207.992 73.990,212.030 78.800 C 213.600 80.670,215.810 83.262,216.942 84.560 C 218.074 85.857,219.073 87.111,219.162 87.345 C 219.251 87.579,219.881 88.326,220.562 89.004 C 221.243 89.683,222.880 91.550,224.200 93.153 C 227.172 96.761,229.252 99.239,231.659 102.038 C 232.681 103.227,234.452 105.325,235.593 106.700 C 236.735 108.075,237.969 109.189,238.335 109.175 C 238.701 109.162,242.960 108.804,247.800 108.380 C 290.330 104.657,289.472 104.672,292.399 107.599 C 295.111 110.311,295.151 111.049,293.641 130.806 C 292.922 140.217,292.186 148.610,292.005 149.458 C 291.824 150.306,291.558 152.980,291.415 155.400 C 291.271 157.820,291.060 160.350,290.947 161.023 C 290.725 162.331,290.119 161.743,302.174 171.909 C 303.288 172.849,305.021 174.335,306.024 175.211 C 307.027 176.087,308.602 177.359,309.524 178.037 C 310.446 178.715,311.200 179.428,311.200 179.622 C 311.200 179.816,311.625 180.205,312.144 180.487 C 312.663 180.769,314.148 181.929,315.444 183.063 C 316.740 184.198,319.240 186.332,321.000 187.805 C 329.388 194.825,330.400 196.138,330.400 199.996 C 330.400 204.645,330.477 204.566,306.265 224.723 C 304.761 225.975,302.871 227.575,302.065 228.277 C 298.339 231.526,295.933 233.569,293.450 235.592 C 290.895 237.674,290.771 237.854,290.964 239.192 C 291.076 239.966,291.283 242.490,291.424 244.800 C 291.565 247.110,291.830 249.817,292.013 250.815 C 292.720 254.660,294.905 285.500,294.628 287.718 C 294.132 291.684,291.684 294.132,287.718 294.628 C 285.503 294.904,254.980 292.743,250.641 292.003 C 249.519 291.811,246.800 291.546,244.600 291.413 C 242.400 291.281,239.966 291.080,239.192 290.967 C 237.853 290.771,237.675 290.893,235.592 293.450 C 233.569 295.933,231.526 298.339,228.277 302.065 C 227.575 302.871,225.975 304.761,224.723 306.265 C 204.510 330.545,204.657 330.402,199.916 330.398 C 196.772 330.395,195.446 329.627,192.037 325.832 C 188.783 322.211,182.033 314.240,180.945 312.736 C 180.475 312.086,179.803 311.339,179.453 311.077 C 179.103 310.815,178.362 309.979,177.806 309.219 C 177.250 308.460,176.081 307.020,175.207 306.019 C 174.333 305.019,172.849 303.288,171.909 302.174 C 161.538 289.876,162.387 290.735,160.829 290.963 C 160.043 291.078,157.600 291.280,155.400 291.411 C 153.200 291.542,150.500 291.814,149.400 292.017 C 148.300 292.219,140.200 292.944,131.400 293.628 C 103.513 295.794,104.150 296.381,106.397 270.600 C 109.157 238.921,109.231 237.858,108.700 237.353 C 108.053 236.738,96.630 227.082,93.019 224.098 C 91.490 222.834,89.689 221.248,89.016 220.574 C 88.343 219.900,87.504 219.180,87.151 218.974 C 86.798 218.768,85.539 217.763,84.354 216.741 C 83.169 215.718,80.760 213.678,79.000 212.207 C 69.723 204.453,67.978 201.338,70.241 196.570 C 71.136 194.685,81.635 185.118,87.243 181.078 C 88.099 180.461,88.800 179.823,88.800 179.660 C 88.800 179.498,89.745 178.654,90.900 177.786 C 92.055 176.918,93.469 175.756,94.042 175.204 C 94.615 174.652,96.325 173.176,97.842 171.925 C 108.478 163.152,109.210 162.487,109.178 161.608 C 109.165 161.274,108.812 157.130,108.392 152.400 C 104.614 109.858,104.636 111.012,107.549 107.864 C 108.917 106.386,110.199 105.739,112.405 105.411 C 114.329 105.125,140.069 106.935,143.400 107.590 C 151.818 109.247,163.910 109.209,163.987 107.525 C 163.994 107.374,165.267 105.754,166.817 103.925 C 168.366 102.096,170.661 99.376,171.917 97.880 C 173.172 96.384,174.650 94.678,175.200 94.090 C 175.750 93.502,176.470 92.632,176.800 92.157 C 177.130 91.682,178.250 90.327,179.288 89.147 C 180.327 87.966,181.947 86.087,182.888 84.971 C 193.050 72.923,194.586 71.270,196.600 70.227 C 198.144 69.427,202.083 69.416,203.614 70.207 M198.495 104.307 C 197.778 105.348,196.273 107.280,195.151 108.600 C 191.958 112.358,187.112 118.340,185.878 120.047 C 184.510 121.941,183.016 121.914,180.638 119.954 C 180.397 119.756,178.670 118.794,176.800 117.817 C 172.764 115.708,167.295 112.770,164.835 111.389 C 162.695 110.187,163.039 109.810,161.598 114.941 C 160.939 117.290,160.232 119.525,160.028 119.906 C 159.825 120.288,158.914 123.390,158.006 126.800 C 157.097 130.210,156.199 133.156,156.011 133.346 C 155.685 133.674,142.171 132.528,141.471 132.112 C 140.394 131.473,130.805 130.990,130.974 131.583 C 131.070 131.922,131.266 133.820,131.409 135.800 C 131.552 137.780,131.822 140.030,132.010 140.800 C 132.622 143.312,133.708 155.652,133.348 156.008 C 133.156 156.197,130.120 157.166,126.600 158.163 C 119.220 160.251,110.685 162.782,110.544 162.923 C 110.401 163.065,111.762 165.707,114.189 170.000 C 115.370 172.090,117.108 175.330,118.052 177.200 C 118.995 179.070,119.884 180.690,120.027 180.800 C 120.476 181.144,121.600 183.532,121.600 184.143 C 121.600 184.463,120.745 185.361,119.700 186.138 C 118.655 186.915,115.190 189.720,112.000 192.371 C 108.810 195.022,105.348 197.778,104.307 198.495 C 101.981 200.099,101.962 199.889,104.605 201.724 C 105.812 202.562,106.800 203.411,106.800 203.611 C 106.800 203.811,107.237 204.205,107.771 204.487 C 108.305 204.769,109.520 205.667,110.471 206.481 C 114.291 209.754,120.083 214.416,120.819 214.810 C 121.826 215.349,121.809 216.686,120.776 218.200 C 120.325 218.860,119.144 220.930,118.151 222.800 C 114.469 229.733,112.182 233.906,111.532 234.877 C 110.132 236.967,110.323 237.227,114.000 238.238 C 115.870 238.752,117.760 239.349,118.200 239.564 C 118.640 239.780,121.790 240.704,125.200 241.619 C 128.610 242.534,131.571 243.444,131.780 243.641 C 131.989 243.838,132.484 244.000,132.880 244.000 C 133.787 244.000,133.785 244.078,132.755 253.000 C 132.298 256.960,131.710 262.212,131.448 264.671 L 130.973 269.142 132.786 268.950 C 142.579 267.914,145.770 267.558,148.000 267.251 C 156.959 266.018,155.915 265.328,158.213 274.000 C 158.999 276.970,159.882 279.940,160.174 280.600 C 160.466 281.260,161.108 283.355,161.601 285.255 C 162.844 290.047,162.707 289.936,165.457 288.388 C 167.942 286.989,170.906 285.396,177.400 281.968 C 179.600 280.807,181.638 279.619,181.928 279.329 C 183.011 278.247,184.504 278.201,185.176 279.231 C 185.519 279.756,187.105 281.759,188.700 283.682 C 190.295 285.605,191.600 287.363,191.600 287.589 C 191.600 287.815,191.765 288.000,191.966 288.000 C 192.167 288.000,193.071 288.945,193.974 290.100 C 194.877 291.255,196.108 292.741,196.708 293.402 C 197.309 294.064,198.250 295.277,198.800 296.100 C 200.040 297.953,200.167 297.953,201.339 296.100 C 201.860 295.275,202.827 294.060,203.487 293.400 C 204.147 292.740,204.847 291.907,205.044 291.549 C 205.240 291.191,206.162 290.021,207.094 288.949 C 208.025 287.877,210.342 285.065,212.243 282.700 C 214.144 280.335,215.868 278.400,216.076 278.400 C 216.511 278.400,217.953 279.137,218.575 279.678 C 218.809 279.881,220.463 280.802,222.251 281.724 C 230.783 286.122,233.016 287.325,233.211 287.630 C 233.568 288.187,236.983 289.578,237.262 289.280 C 237.407 289.126,237.928 287.470,238.419 285.600 C 238.911 283.730,239.451 282.020,239.619 281.800 C 239.882 281.455,242.547 271.890,243.101 269.300 C 243.207 268.805,243.452 268.400,243.647 268.400 C 243.841 268.400,244.000 268.051,244.000 267.624 C 244.000 266.431,244.309 266.398,249.630 267.018 C 256.479 267.815,268.987 269.129,269.058 269.058 C 269.131 268.986,267.808 256.324,267.027 249.623 C 266.409 244.312,266.440 244.000,267.590 244.000 C 267.999 244.000,268.393 243.850,268.467 243.667 C 268.540 243.484,271.390 242.572,274.800 241.641 C 278.210 240.709,281.540 239.712,282.200 239.425 C 282.860 239.138,284.660 238.581,286.200 238.188 C 287.740 237.795,289.139 237.354,289.308 237.209 C 289.640 236.924,288.912 235.455,284.446 227.400 C 282.860 224.540,281.187 221.345,280.728 220.300 C 280.269 219.255,279.759 218.400,279.595 218.400 C 279.431 218.400,279.068 217.848,278.789 217.174 C 278.190 215.726,277.846 216.139,283.400 211.646 C 285.600 209.867,288.140 207.765,289.045 206.975 C 289.949 206.185,291.254 205.195,291.945 204.775 C 292.635 204.355,293.201 203.874,293.202 203.706 C 293.203 203.538,294.193 202.685,295.402 201.812 C 298.011 199.927,297.980 200.058,296.100 198.800 C 295.277 198.250,294.064 197.309,293.402 196.708 C 292.741 196.108,291.255 194.877,290.100 193.974 C 288.945 193.071,288.000 192.167,288.000 191.966 C 288.000 191.765,287.797 191.600,287.549 191.600 C 287.301 191.600,285.636 190.367,283.849 188.860 C 282.062 187.353,280.105 185.802,279.500 185.414 C 278.213 184.588,278.109 183.680,279.148 182.354 C 279.559 181.829,280.774 179.720,281.848 177.666 C 284.784 172.051,286.478 168.892,288.180 165.860 C 289.971 162.669,290.101 162.858,285.255 161.601 C 283.355 161.108,281.260 160.475,280.600 160.195 C 279.940 159.915,276.970 159.030,274.000 158.229 C 267.628 156.510,266.392 156.057,266.423 155.451 C 266.436 155.203,266.711 152.840,267.033 150.200 C 267.356 147.560,267.875 142.970,268.186 140.000 C 268.498 137.030,268.855 133.779,268.980 132.776 L 269.207 130.953 264.258 131.432 C 261.535 131.696,258.969 132.015,258.554 132.142 C 257.823 132.364,246.111 133.596,244.700 133.599 C 244.292 133.599,244.000 133.300,244.000 132.880 C 244.000 132.484,243.845 131.989,243.656 131.780 C 243.466 131.571,242.560 128.610,241.643 125.200 C 240.726 121.790,239.819 118.717,239.628 118.371 C 239.437 118.024,238.893 116.314,238.418 114.571 C 237.943 112.827,237.476 111.165,237.381 110.877 C 237.258 110.506,236.187 110.911,233.704 112.267 C 228.140 115.304,226.421 116.232,222.800 118.153 C 220.930 119.145,218.860 120.325,218.200 120.776 C 216.154 122.172,215.669 121.883,211.800 116.959 C 209.820 114.440,207.511 111.618,206.670 110.689 C 205.828 109.760,204.878 108.505,204.559 107.900 C 204.240 107.295,203.826 106.800,203.638 106.800 C 203.451 106.800,202.616 105.810,201.782 104.600 C 199.958 101.952,200.110 101.965,198.495 104.307 M203.113 144.389 C 205.847 145.713,207.291 148.131,210.410 156.600 C 211.139 158.580,211.870 160.380,212.034 160.600 C 212.346 161.019,214.023 165.324,215.073 168.400 C 215.411 169.390,215.846 170.397,216.040 170.637 C 216.235 170.877,217.118 173.037,218.004 175.437 C 218.889 177.837,219.875 180.269,220.195 180.843 C 220.515 181.416,221.489 183.756,222.359 186.043 C 224.400 191.409,227.479 199.065,228.214 200.600 C 229.063 202.372,230.800 206.880,230.800 207.311 C 230.800 207.516,231.229 208.537,231.752 209.580 C 232.276 210.623,233.388 213.349,234.222 215.638 C 235.057 217.927,235.971 220.161,236.252 220.602 C 236.533 221.043,237.400 223.161,238.177 225.308 C 238.954 227.456,239.928 229.885,240.342 230.706 C 240.755 231.528,241.682 233.820,242.403 235.800 C 243.123 237.780,243.957 239.755,244.256 240.189 C 246.049 242.791,245.097 243.200,237.256 243.200 C 230.372 243.200,229.523 242.964,229.020 240.909 C 228.870 240.299,228.246 238.720,227.632 237.400 C 227.018 236.080,225.915 233.380,225.180 231.400 C 224.445 229.420,223.725 227.710,223.580 227.600 C 223.435 227.490,222.679 225.690,221.900 223.600 L 220.483 219.800 200.030 219.696 C 180.812 219.599,179.564 219.635,179.351 220.296 C 179.226 220.683,178.403 222.800,177.522 225.000 C 176.641 227.200,175.110 231.066,174.119 233.591 C 173.129 236.116,172.066 238.541,171.759 238.980 C 171.452 239.419,171.200 240.074,171.200 240.435 C 171.200 240.796,170.827 241.566,170.371 242.146 L 169.542 243.200 163.145 243.200 C 159.500 243.200,156.415 243.022,155.974 242.786 C 155.196 242.370,154.924 241.382,155.518 241.133 C 155.694 241.060,156.615 238.840,157.566 236.200 C 158.517 233.560,159.453 231.202,159.646 230.961 C 159.839 230.720,160.718 228.577,161.600 226.200 C 162.482 223.823,163.355 221.680,163.540 221.439 C 163.726 221.198,164.643 218.930,165.579 216.400 C 166.515 213.870,167.416 211.620,167.582 211.400 C 167.748 211.180,168.651 208.930,169.589 206.400 C 170.528 203.870,171.450 201.605,171.640 201.368 C 171.830 201.130,172.630 199.150,173.418 196.968 C 174.205 194.785,175.079 192.640,175.359 192.200 C 175.638 191.760,176.370 189.960,176.984 188.200 C 177.599 186.440,178.590 183.920,179.186 182.600 C 179.783 181.280,180.953 178.355,181.786 176.100 C 182.619 173.845,183.458 172.000,183.650 172.000 C 183.843 172.000,184.000 171.776,184.000 171.502 C 184.000 170.885,187.177 162.349,187.611 161.800 C 187.785 161.580,188.687 159.330,189.615 156.800 C 190.543 154.270,191.435 152.110,191.597 152.000 C 191.759 151.890,192.028 151.350,192.194 150.800 C 193.308 147.107,194.900 145.206,198.000 143.869 C 199.978 143.016,200.359 143.055,203.113 144.389 M199.876 169.876 C 199.742 170.094,198.999 172.021,198.225 174.159 C 197.451 176.297,196.549 178.531,196.221 179.123 C 195.662 180.132,194.319 183.408,190.266 193.648 C 189.342 195.984,188.394 198.144,188.160 198.448 C 187.926 198.751,187.320 200.170,186.813 201.600 C 186.306 203.030,185.808 204.421,185.706 204.690 C 185.563 205.070,188.798 205.205,200.114 205.290 L 214.707 205.400 213.572 202.323 C 212.948 200.630,211.890 198.076,211.222 196.647 C 210.554 195.217,209.714 193.186,209.356 192.132 C 208.999 191.079,208.118 188.953,207.400 187.409 C 206.681 185.864,205.630 183.304,205.062 181.720 C 204.495 180.136,203.836 178.516,203.598 178.120 C 203.359 177.724,202.479 175.618,201.642 173.440 C 200.806 171.263,200.011 169.659,199.876 169.876 " stroke="none" fill="#3359df" fill-rule="evenodd" /><path id="path2" d="M292.093 147.200 C 292.093 147.970,292.175 148.285,292.276 147.900 C 292.376 147.515,292.376 146.885,292.276 146.500 C 292.175 146.115,292.093 146.430,292.093 147.200 M199.800 205.200 L 185.000 205.415 199.676 205.507 C 209.130 205.567,214.441 205.458,214.600 205.200 C 214.736 204.980,214.792 204.842,214.724 204.893 C 214.656 204.944,207.940 205.082,199.800 205.200 M146.500 292.276 C 146.885 292.376,147.515 292.376,147.900 292.276 C 148.285 292.175,147.970 292.093,147.200 292.093 C 146.430 292.093,146.115 292.175,146.500 292.276 " stroke="none" fill="#3a5edf" fill-rule="evenodd" /><path id="path3" d="" stroke="none" fill="#3d61e0" fill-rule="evenodd" /><path id="path4" d="" stroke="none" fill="#4466e1" fill-rule="evenodd" /><path id="path5" d="" stroke="none" fill="#4366e2" fill-rule="evenodd" /><path id="path6" d="M113.905 105.483 C 114.402 105.579,115.122 105.575,115.505 105.475 C 115.887 105.375,115.480 105.296,114.600 105.301 C 113.720 105.305,113.407 105.387,113.905 105.483 M105.301 114.600 C 105.305 115.480,105.387 115.793,105.483 115.295 C 105.579 114.798,105.575 114.078,105.475 113.695 C 105.375 113.313,105.296 113.720,105.301 114.600 M105.301 285.400 C 105.305 286.280,105.387 286.593,105.483 286.095 C 105.579 285.598,105.575 284.878,105.475 284.495 C 105.375 284.113,105.296 284.520,105.301 285.400 " stroke="none" fill="#4a6ce2" fill-rule="evenodd" /><path id="path7" d="" stroke="none" fill="#5171e3" fill-rule="evenodd" /><path id="path8" d="" stroke="none" fill="#5c7ae5" fill-rule="evenodd" /><path id="path9" d="" stroke="none" fill="#6380e6" fill-rule="evenodd" /><path id="path10" d="M159.500 243.097 C 161.095 243.173,163.705 243.173,165.300 243.097 C 166.895 243.021,165.590 242.959,162.400 242.959 C 159.210 242.959,157.905 243.021,159.500 243.097 M234.700 243.097 C 236.295 243.173,238.905 243.173,240.500 243.097 C 242.095 243.021,240.790 242.959,237.600 242.959 C 234.410 242.959,233.105 243.021,234.700 243.097 " stroke="none" fill="#6c87e8" fill-rule="evenodd" /><path id="path11" d="" stroke="none" fill="#738ce8" fill-rule="evenodd" /><path id="path12" d="" stroke="none" fill="#748ee9" fill-rule="evenodd" /><path id="path13" d="" stroke="none" fill="#7b93ea" fill-rule="evenodd" /><path id="path14" d="" stroke="none" fill="#839aeb" fill-rule="evenodd" /><path id="path15" d="M192.726 205.900 C 196.976 205.964,203.816 205.964,207.926 205.899 C 212.037 205.834,208.560 205.781,200.200 205.781 C 191.840 205.782,188.477 205.835,192.726 205.900 " stroke="none" fill="#8fa4ed" fill-rule="evenodd" /><path id="path16" d="" stroke="none" fill="#97aaee" fill-rule="evenodd" /><path id="path17" d="M199.300 330.276 C 199.685 330.376,200.315 330.376,200.700 330.276 C 201.085 330.175,200.770 330.093,200.000 330.093 C 199.230 330.093,198.915 330.175,199.300 330.276 " stroke="none" fill="#9caff0" fill-rule="evenodd" /><path id="path18" d="" stroke="none" fill="#a3b4f0" fill-rule="evenodd" /><path id="path19" d="M113.905 105.883 C 114.402 105.979,115.122 105.975,115.505 105.875 C 115.887 105.775,115.480 105.696,114.600 105.701 C 113.720 105.705,113.407 105.787,113.905 105.883 M105.701 114.600 C 105.705 115.480,105.787 115.793,105.883 115.295 C 105.979 114.798,105.975 114.078,105.875 113.695 C 105.775 113.313,105.696 113.720,105.701 114.600 M105.701 285.400 C 105.705 286.280,105.787 286.593,105.883 286.095 C 105.979 285.598,105.975 284.878,105.875 284.495 C 105.775 284.113,105.696 284.520,105.701 285.400 " stroke="none" fill="#aebdf2" fill-rule="evenodd" /><path id="path20" d="" stroke="none" fill="#b3c1f2" fill-rule="evenodd" /><path id="path21" d="M189.900 219.500 C 195.455 219.562,204.545 219.562,210.100 219.500 C 215.655 219.437,211.110 219.386,200.000 219.386 C 188.890 219.386,184.345 219.437,189.900 219.500 " stroke="none" fill="#b9c6f4" fill-rule="evenodd" /><path id="path22" d="" stroke="none" fill="#c0cbf4" fill-rule="evenodd" /><path id="path23" d="" stroke="none" fill="#c2cdf5" fill-rule="evenodd" /><path id="path24" d="M294.093 285.600 C 294.093 286.370,294.175 286.685,294.276 286.300 C 294.376 285.915,294.376 285.285,294.276 284.900 C 294.175 284.515,294.093 284.830,294.093 285.600 " stroke="none" fill="#c9d3f6" fill-rule="evenodd" /><path id="path25" d="" stroke="none" fill="#d0d9f7" fill-rule="evenodd" /><path id="path26" d="" stroke="none" fill="#d0d9f8" fill-rule="evenodd" /><path id="path27" d="M159.700 242.697 C 161.405 242.772,164.195 242.772,165.900 242.697 C 167.605 242.622,166.210 242.561,162.800 242.561 C 159.390 242.561,157.995 242.622,159.700 242.697 M234.518 242.698 C 236.233 242.773,238.933 242.772,240.518 242.697 C 242.103 242.621,240.700 242.559,237.400 242.560 C 234.100 242.561,232.803 242.622,234.518 242.698 " stroke="none" fill="#d7def8" fill-rule="evenodd" /><path id="path28" d="" stroke="none" fill="#e3e8fa" fill-rule="evenodd" /><path id="path29" d="M193.375 73.700 L 192.200 75.000 193.500 73.825 C 194.712 72.730,194.984 72.400,194.675 72.400 C 194.606 72.400,194.021 72.985,193.375 73.700 M73.781 193.300 L 72.200 195.000 73.900 193.419 C 75.481 191.948,75.784 191.600,75.481 191.600 C 75.416 191.600,74.651 192.365,73.781 193.300 M192.274 206.299 C 196.494 206.364,203.514 206.364,207.874 206.300 C 212.233 206.235,208.780 206.182,200.200 206.182 C 191.620 206.182,188.053 206.235,192.274 206.299 M189.700 219.100 C 195.365 219.162,204.635 219.162,210.300 219.100 C 215.965 219.037,211.330 218.986,200.000 218.986 C 188.670 218.986,184.035 219.037,189.700 219.100 M291.293 252.400 C 291.293 253.170,291.375 253.485,291.476 253.100 C 291.576 252.715,291.576 252.085,291.476 251.700 C 291.375 251.315,291.293 251.630,291.293 252.400 M251.700 291.476 C 252.085 291.576,252.715 291.576,253.100 291.476 C 253.485 291.375,253.170 291.293,252.400 291.293 C 251.630 291.293,251.315 291.375,251.700 291.476 " stroke="none" fill="#eff2fc" fill-rule="evenodd" /><path id="path30" d="M329.693 200.000 C 329.693 200.770,329.775 201.085,329.876 200.700 C 329.976 200.315,329.976 199.685,329.876 199.300 C 329.775 198.915,329.693 199.230,329.693 200.000 M206.175 326.500 L 205.000 327.800 206.300 326.625 C 207.015 325.979,207.600 325.394,207.600 325.325 C 207.600 325.016,207.270 325.288,206.175 326.500 M199.300 329.876 C 199.685 329.976,200.315 329.976,200.700 329.876 C 201.085 329.775,200.770 329.693,200.000 329.693 C 199.230 329.693,198.915 329.775,199.300 329.876 " stroke="none" fill="#f9fafd" fill-rule="evenodd" /><path id="path31" d="M205.200 72.525 C 205.200 72.594,205.785 73.179,206.500 73.825 L 207.800 75.000 206.625 73.700 C 205.530 72.488,205.200 72.216,205.200 72.525 " stroke="none" fill="#f8f9fd" fill-rule="evenodd" /></g></svg>
